<?xml version="1.0" encoding="UTF-8"?>
<!-- Generated by Pixelmator Pro 3.5.7 -->
<svg width="20" height="20" viewBox="0 0 20 20" xmlns="http://www.w3.org/2000/svg">
    <g id="g1">
        <path id="path1" fill="#ffffff" stroke="none" d="M 14.142857 2.357143 C 14.892386 2.357143 15.500001 2.964756 15.500001 3.714287 L 15.500001 17.285715 C 15.500001 18.035244 14.892386 18.642857 14.142857 18.642857 L 6 18.642857 C 5.250471 18.642857 4.642857 18.035244 4.642857 17.285715 L 4.642857 3.714287 C 4.642857 2.964756 5.250471 2.357143 6 2.357143 L 14.142857 2.357143 M 14.142857 1 L 6 1 C 4.500941 1 3.285714 2.215227 3.285714 3.714287 L 3.285714 17.285715 C 3.285714 18.784773 4.500941 20 6 20 L 14.142857 20 C 15.641916 20 16.857143 18.784773 16.857143 17.285715 L 16.857143 3.714287 C 16.857143 2.215227 15.641916 1 14.142857 1 Z"/>
        <path id="path2" fill="#ffffff" stroke="none" d="M 5.9375 19.322266 C 4.572138 19.322266 3.890625 18.6388 3.890625 17.273438 L 3.890625 3.619141 C 3.890625 2.253777 4.572138 1.572266 5.9375 1.572266 L 14.130859 1.572266 C 15.496222 1.572266 16.177734 2.253777 16.177734 3.619141 L 16.177734 17.273438 C 16.177734 18.6388 15.496222 19.322266 14.130859 19.322266 L 5.9375 19.322266 Z M 7.986328 17.273438 L 12.082031 17.273438 C 12.459023 17.273375 12.765625 16.966833 12.765625 16.589844 C 12.765625 16.212852 12.459023 15.908266 12.082031 15.908203 L 7.986328 15.908203 C 7.609337 15.908266 7.304688 16.212852 7.304688 16.589844 C 7.304688 16.966833 7.609337 17.273375 7.986328 17.273438 Z M 9.091797 3.619141 L 10.976563 3.619141 C 11.236702 3.616484 11.474486 3.470482 11.591797 3.238281 L 12.082031 2.253906 L 7.986328 2.253906 L 8.478516 3.238281 C 8.595825 3.470482 8.831658 3.616484 9.091797 3.619141 Z"/>
    </g>
</svg>
