<?xml version="1.0" encoding="UTF-8"?>
<!-- Generated by Pixelmator Pro 3.6.12 -->
<svg width="20" height="20" viewBox="0 0 20 20" xmlns="http://www.w3.org/2000/svg">
    <path id="path1" fill="#4c97ff" stroke="none" d="M 15.966665 8.266665 L 3.366667 8.266665 C 2.981667 8.266665 2.666667 8.581666 2.666667 8.966666 L 2.687667 13.019666 C 2.827667 15.175666 4.157667 16.505665 6.313667 16.645666 L 13.019666 16.645666 C 15.175667 16.505665 16.505665 15.175666 16.645664 13.019666 L 16.666666 8.966666 C 16.666666 8.581666 16.351665 8.266665 15.966665 8.266665 Z M 6.866667 12.571665 L 8.035666 14.104666 L 7.335667 14.335666 L 5.998666 13.159666 C 5.718666 12.739666 5.718666 12.193666 5.998666 11.773666 L 7.335667 10.597666 L 8.035666 10.828666 L 6.866667 12.571665 Z M 13.481666 13.159666 L 12.144666 14.335666 L 11.444666 14.104666 L 12.606666 12.571665 L 11.444666 10.828666 L 12.144666 10.597666 L 13.481666 11.773666 C 13.761666 12.193666 13.761666 12.739666 13.481666 13.159666 Z M 16.666666 6.733666 L 16.666666 6.866667 C 16.666666 7.251666 16.351665 7.566667 15.966665 7.566667 L 3.366667 7.573666 C 2.981667 7.573666 2.666667 7.258666 2.666667 6.873667 L 2.687667 6.313666 C 2.827667 4.157667 4.157667 2.827667 6.313667 2.687668 L 13.019666 2.687668 C 15.175667 2.827667 16.505665 4.157667 16.645664 6.313666 L 16.666666 6.733666 Z"/>
</svg>
